{
  "accessors": [
    {
      "bufferView": 2,
      "componentType": 5126,
      "count": 2765,
      "max": [
        0.9934911727905273,
        0.9999504685401917,
        0.9934911727905273
      ],
      "min": [
        -0.9934911727905273,
        -0.9999504685401917,
        -0.9934912323951721
      ],
      "type": "VEC3"
    },
    {
      "bufferView": 2,
      "byteOffset": 33180,
      "componentType": 5126,
      "count": 2765,
      "max": [
        1.0,
        1.0,
        1.0
      ],
      "min": [
        -1.0,
        -1.0,
        -1.0
      ],
      "type": "VEC3"
    },
    {
      "bufferView": 1,
      "componentType": 5126,
      "count": 2765,
      "max": [
        0.5512232184410095,
        0.9535487294197083
      ],
      "min": [
        0.17059461772441864,
        0.08889848738908768
      ],
      "type": "VEC2"
    },
    {
      "bufferView": 0,
      "componentType": 5125,
      "count": 13440,
      "type": "SCALAR"
    },
    {
      "bufferView": 2,
      "byteOffset": 66360,
      "componentType": 5126,
      "count": 552,
      "max": [
        0.49219125509262085,
        0.06000005081295967,
        0.5727283954620361
      ],
      "min": [
        -0.44188085198402405,
        -1.1232332752797447e-07,
        -0.5751049518585205
      ],
      "type": "VEC3"
    },
    {
      "bufferView": 2,
      "byteOffset": 72984,
      "componentType": 5126,
      "count": 552,
      "max": [
        0.9978681206703186,
        0.9959951639175415,
        0.9977493286132813
      ],
      "min": [
        -0.9928005337715149,
        -0.9959952235221863,
        -0.9955257773399353
      ],
      "type": "VEC3"
    },
    {
      "bufferView": 1,
      "byteOffset": 22120,
      "componentType": 5126,
      "count": 552,
      "max": [
        0.0,
        0.0
      ],
      "min": [
        0.0,
        0.0
      ],
      "type": "VEC2"
    },
    {
      "bufferView": 0,
      "byteOffset": 53760,
      "componentType": 5125,
      "count": 3204,
      "type": "SCALAR"
    }
  ],
  "asset": {
    "extras": {
      "author": "AlbertVictory (https://sketchfab.com/albert_victory)",
      "license": "CC-BY-4.0 (http://creativecommons.org/licenses/by/4.0/)",
      "source": "https://sketchfab.com/3d-models/telegram-3d-icon-80421c5d474f4a3c8145ba4b9aaa7d2d",
      "title": "Telegram 3D-icon"
    },
    "generator": "Sketchfab-14.15.0",
    "version": "2.0"
  },
  "bufferViews": [
    {
      "buffer": 0,
      "byteLength": 66576,
      "name": "floatBufferViews",
      "target": 34963
    },
    {
      "buffer": 0,
      "byteLength": 26536,
      "byteOffset": 66576,
      "byteStride": 8,
      "name": "floatBufferViews",
      "target": 34962
    },
    {
      "buffer": 0,
      "byteLength": 79608,
      "byteOffset": 93112,
      "byteStride": 12,
      "name": "floatBufferViews",
      "target": 34962
    }
  ],
  "buffers": [
    {
      "byteLength": 172720,
      "uri": "scene.bin"
    }
  ],
  "images": [
    {
      "uri": "textures/material_baseColor.png"
    }
  ],
  "materials": [
    {
      "doubleSided": true,
      "name": "material",
      "pbrMetallicRoughness": {
        "baseColorTexture": {
          "index": 0
        },
        "metallicFactor": 0.0,
        "roughnessFactor": 0.5
      }
    },
    {
      "doubleSided": true,
      "name": "Material.002",
      "pbrMetallicRoughness": {
        "metallicFactor": 0.0,
        "roughnessFactor": 0.5
      }
    }
  ],
  "meshes": [
    {
      "name": "Object_0",
      "primitives": [
        {
          "attributes": {
            "NORMAL": 1,
            "POSITION": 0,
            "TEXCOORD_0": 2
          },
          "indices": 3,
          "material": 0,
          "mode": 4
        }
      ]
    },
    {
      "name": "Object_1",
      "primitives": [
        {
          "attributes": {
            "NORMAL": 5,
            "POSITION": 4,
            "TEXCOORD_0": 6
          },
          "indices": 7,
          "material": 1,
          "mode": 4
        }
      ]
    }
  ],
  "nodes": [
    {
      "children": [
        1
      ],
      "matrix": [
        1.0,
        0.0,
        0.0,
        0.0,
        0.0,
        2.220446049250313e-16,
        -1.0,
        0.0,
        0.0,
        1.0,
        2.220446049250313e-16,
        0.0,
        0.0,
        0.0,
        0.0,
        1.0
      ],
      "name": "Sketchfab_model"
    },
    {
      "children": [
        2
      ],
      "name": "root"
    },
    {
      "children": [
        3
      ],
      "matrix": [
        1.0,
        0.0,
        0.0,
        0.0,
        0.0,
        2.220446049250313e-16,
        1.0,
        0.0,
        0.0,
        -1.0,
        2.220446049250313e-16,
        0.0,
        0.0,
        0.0,
        0.0,
        1.0
      ],
      "name": "GLTF_SceneRootNode"
    },
    {
      "children": [
        4,
        5
      ],
      "matrix": [
        1.2412847893994439e-07,
        0.9671191844302568,
        0.25432357953390755,
        0.0,
        0.0920724868774365,
        -3.965317886636351e-09,
        -2.985913762590909e-08,
        0.0,
        -3.026840257880359e-07,
        0.2543235795339342,
        -0.9671191844302105,
        0.0,
        0.0,
        -0.020059585571289063,
        -0.04034709930419922,
        1.0
      ],
      "name": "telegram_1"
    },
    {
      "mesh": 0,
      "name": "Object_4"
    },
    {
      "children": [
        6
      ],
      "matrix": [
        -0.9671191820390803,
        0.0,
        -0.2543235886268905,
        0.0,
        0.0,
        10.861007690429688,
        0.0,
        0.0,
        0.2543235886268905,
        0.0,
        -0.9671191820390803,
        0.0,
        -0.014422929845750332,
        0.8638257384300232,
        -0.07742181420326233,
        1.0
      ],
      "name": "Plane.005_0"
    },
    {
      "mesh": 1,
      "name": "Object_6"
    }
  ],
  "samplers": [
    {
      "magFilter": 9729,
      "minFilter": 9987,
      "wrapS": 10497,
      "wrapT": 10497
    }
  ],
  "scene": 0,
  "scenes": [
    {
      "name": "Sketchfab_Scene",
      "nodes": [
        0
      ]
    }
  ],
  "textures": [
    {
      "sampler": 0,
      "source": 0
    }
  ]
}
